<svg xmlns="http://www.w3.org/2000/svg" xmlns:xlink="http://www.w3.org/1999/xlink" width="1080" zoomAndPan="magnify" viewBox="0 0 810 809.999993" height="1080" preserveAspectRatio="xMidYMid meet" version="1.0"><defs><clipPath id="f134c1fc79"><path d="M 81 99 L 351 99 L 351 405.324219 L 81 405.324219 Z M 81 99 " clip-rule="nonzero"/></clipPath><clipPath id="c788880321"><path d="M 106 24.324219 L 157 24.324219 L 157 76 L 106 76 Z M 106 24.324219 " clip-rule="nonzero"/></clipPath><clipPath id="4dbc7a2288"><path d="M 163 24.324219 L 212 24.324219 L 212 76 L 163 76 Z M 163 24.324219 " clip-rule="nonzero"/></clipPath><clipPath id="0275111659"><path d="M 218 24.324219 L 277 24.324219 L 277 76 L 218 76 Z M 218 24.324219 " clip-rule="nonzero"/></clipPath><clipPath id="b9ce253c75"><path d="M 285 24.324219 L 327 24.324219 L 327 76 L 285 76 Z M 285 24.324219 " clip-rule="nonzero"/></clipPath><clipPath id="79edba8e1e"><path d="M 459.066406 99 L 729 99 L 729 405.324219 L 459.066406 405.324219 Z M 459.066406 99 " clip-rule="nonzero"/></clipPath><clipPath id="4193b836f2"><path d="M 522 24.324219 L 564 24.324219 L 564 76 L 522 76 Z M 522 24.324219 " clip-rule="nonzero"/></clipPath><clipPath id="4aaedf08e7"><path d="M 571 24.324219 L 613 24.324219 L 613 77 L 571 77 Z M 571 24.324219 " clip-rule="nonzero"/></clipPath><clipPath id="ed114cec0c"><path d="M 620 24.324219 L 662 24.324219 L 662 77 L 620 77 Z M 620 24.324219 " clip-rule="nonzero"/></clipPath><clipPath id="41b592ec57"><path d="M 254.101562 427.203125 L 555.601562 427.203125 L 555.601562 728 L 254.101562 728 Z M 254.101562 427.203125 " clip-rule="nonzero"/></clipPath><clipPath id="4afbd6c484"><path d="M 254.101562 427.203125 L 406 427.203125 L 406 728.703125 L 254.101562 728.703125 Z M 254.101562 427.203125 " clip-rule="nonzero"/></clipPath></defs><g clip-path="url(#f134c1fc79)"><path fill="#e44d26" d="M 350.925781 99.199219 L 326.351562 374.667969 L 215.882812 405.308594 L 105.722656 374.710938 L 81.175781 99.199219 L 350.917969 99.195312 L 350.929688 99.195312 Z M 350.925781 99.199219 " fill-opacity="1" fill-rule="nonzero"/></g><path fill="#f16529" d="M 216.054688 381.890625 L 305.320312 357.128906 L 326.320312 121.726562 L 216.054688 121.722656 Z M 216.054688 381.890625 " fill-opacity="1" fill-rule="nonzero"/><path fill="#ebebeb" d="M 168.28125 189.304688 L 216.054688 189.304688 L 216.054688 155.511719 L 131.371094 155.511719 L 132.179688 164.578125 L 140.480469 257.695312 L 216.054688 257.695312 L 216.054688 223.914062 L 171.367188 223.914062 Z M 168.28125 189.304688 " fill-opacity="1" fill-rule="nonzero"/><path fill="#ebebeb" d="M 175.890625 274.59375 L 141.988281 274.59375 L 146.722656 327.652344 L 215.894531 346.867188 L 216.054688 346.824219 L 216.054688 311.667969 L 215.90625 311.710938 L 178.296875 301.542969 Z M 175.890625 274.59375 " fill-opacity="1" fill-rule="nonzero"/><g clip-path="url(#c788880321)"><path fill="#000000" d="M 106.273438 24.324219 L 123.4375 24.324219 L 123.4375 41.289062 L 139.132812 41.289062 L 139.132812 24.324219 L 156.296875 24.324219 L 156.296875 75.699219 L 139.136719 75.699219 L 139.136719 58.496094 L 123.4375 58.496094 L 123.4375 75.699219 L 106.273438 75.699219 Z M 106.273438 24.324219 " fill-opacity="1" fill-rule="nonzero"/></g><g clip-path="url(#4dbc7a2288)"><path fill="#000000" d="M 178.863281 41.363281 L 163.757812 41.363281 L 163.757812 24.324219 L 211.148438 24.324219 L 211.148438 41.363281 L 196.027344 41.363281 L 196.027344 75.699219 L 178.867188 75.699219 L 178.867188 41.363281 Z M 178.863281 41.363281 " fill-opacity="1" fill-rule="nonzero"/></g><g clip-path="url(#0275111659)"><path fill="#000000" d="M 218.664062 24.324219 L 236.554688 24.324219 L 247.5625 42.375 L 258.558594 24.324219 L 276.460938 24.324219 L 276.460938 75.699219 L 259.375 75.699219 L 259.375 50.234375 L 247.5625 68.503906 L 247.265625 68.503906 L 235.457031 50.234375 L 235.457031 75.699219 L 218.664062 75.699219 Z M 218.664062 24.324219 " fill-opacity="1" fill-rule="nonzero"/></g><g clip-path="url(#b9ce253c75)"><path fill="#000000" d="M 285.007812 24.324219 L 302.167969 24.324219 L 302.167969 58.71875 L 326.308594 58.71875 L 326.308594 75.699219 L 285.007812 75.699219 Z M 285.007812 24.324219 " fill-opacity="1" fill-rule="nonzero"/></g><path fill="#ffffff" d="M 215.9375 257.695312 L 257.523438 257.695312 L 253.601562 301.519531 L 215.9375 311.699219 L 215.9375 346.847656 L 285.164062 327.652344 L 285.671875 321.941406 L 293.613281 232.980469 L 294.4375 223.914062 L 215.9375 223.914062 Z M 215.9375 257.695312 " fill-opacity="1" fill-rule="nonzero"/><path fill="#ffffff" d="M 215.9375 189.21875 L 215.9375 189.304688 L 297.503906 189.304688 L 298.179688 181.707031 L 299.726562 164.578125 L 300.527344 155.511719 L 215.9375 155.511719 Z M 215.9375 189.21875 " fill-opacity="1" fill-rule="nonzero"/><g clip-path="url(#79edba8e1e)"><path fill="#264de4" d="M 593.949219 405.3125 L 483.789062 374.714844 L 459.242188 99.203125 L 728.984375 99.199219 L 704.421875 374.667969 L 593.957031 405.308594 Z M 593.949219 405.3125 " fill-opacity="1" fill-rule="nonzero"/></g><path fill="#2965f1" d="M 683.386719 357.128906 L 704.386719 121.726562 L 594.121094 121.722656 L 594.121094 381.886719 Z M 683.386719 357.128906 " fill-opacity="1" fill-rule="nonzero"/><path fill="#ebebeb" d="M 515.519531 223.914062 L 518.546875 257.695312 L 594.121094 257.695312 L 594.121094 223.914062 Z M 515.519531 223.914062 " fill-opacity="1" fill-rule="nonzero"/><path fill="#ebebeb" d="M 509.4375 155.511719 L 512.507812 189.304688 L 594.121094 189.304688 L 594.121094 155.511719 Z M 509.4375 155.511719 " fill-opacity="1" fill-rule="nonzero"/><path fill="#ebebeb" d="M 594.121094 311.667969 L 593.972656 311.710938 L 556.363281 301.542969 L 553.957031 274.59375 L 520.054688 274.59375 L 524.789062 327.652344 L 593.960938 346.867188 L 594.121094 346.824219 Z M 594.121094 311.667969 " fill-opacity="1" fill-rule="nonzero"/><g clip-path="url(#4193b836f2)"><path fill="#000000" d="M 522.726562 24.324219 L 563.628906 24.324219 L 563.628906 41.4375 L 539.832031 41.4375 L 539.832031 58.554688 L 563.628906 58.554688 L 563.628906 75.667969 L 522.726562 75.667969 Z M 522.726562 24.324219 " fill-opacity="1" fill-rule="nonzero"/></g><g clip-path="url(#4aaedf08e7)"><path fill="#000000" d="M 571.808594 24.324219 L 612.707031 24.324219 L 612.707031 39.207031 L 588.917969 39.207031 L 588.917969 42.183594 L 612.707031 42.183594 L 612.707031 76.414062 L 571.808594 76.414062 L 571.808594 60.785156 L 595.609375 60.785156 L 595.609375 57.808594 L 571.808594 57.808594 Z M 571.808594 24.324219 " fill-opacity="1" fill-rule="nonzero"/></g><g clip-path="url(#ed114cec0c)"><path fill="#000000" d="M 620.894531 24.324219 L 661.792969 24.324219 L 661.792969 39.207031 L 637.992188 39.207031 L 637.992188 42.183594 L 661.792969 42.183594 L 661.792969 76.414062 L 620.894531 76.414062 L 620.894531 60.785156 L 644.683594 60.785156 L 644.683594 57.808594 L 620.894531 57.808594 Z M 620.894531 24.324219 " fill-opacity="1" fill-rule="nonzero"/></g><path fill="#ffffff" d="M 672.503906 223.914062 L 678.59375 155.511719 L 594.003906 155.511719 L 594.003906 189.304688 L 641.585938 189.304688 L 638.519531 223.914062 L 594.003906 223.914062 L 594.003906 257.695312 L 635.589844 257.695312 L 631.667969 301.519531 L 594.003906 311.699219 L 594.003906 346.847656 L 663.230469 327.652344 L 663.738281 321.941406 L 671.679688 232.980469 Z M 672.503906 223.914062 " fill-opacity="1" fill-rule="nonzero"/><g clip-path="url(#41b592ec57)"><path fill="#ffc44d" d="M 265.320312 426.503906 C 262.304688 426.503906 259.433594 427.796875 257.4375 430.058594 C 255.441406 432.320312 254.511719 435.332031 254.882812 438.324219 L 282.929688 662.695312 C 283.367188 666.1875 285.519531 669.226562 288.664062 670.800781 L 400.851562 726.890625 C 403.808594 728.371094 407.296875 728.371094 410.257812 726.890625 L 522.441406 670.800781 C 525.589844 669.226562 527.738281 666.1875 528.175781 662.695312 L 556.222656 438.324219 C 556.597656 435.332031 555.667969 432.320312 553.671875 430.058594 C 551.675781 427.796875 548.800781 426.503906 545.785156 426.503906 Z M 265.320312 426.503906 " fill-opacity="1" fill-rule="nonzero"/></g><g clip-path="url(#4afbd6c484)"><path fill="#e5b045" d="M 405.554688 426.503906 L 405.554688 728.003906 C 403.941406 728.003906 402.332031 727.632812 400.851562 726.890625 L 288.664062 670.800781 C 285.519531 669.226562 283.367188 666.1875 282.929688 662.695312 L 254.882812 438.324219 C 254.511719 435.332031 255.441406 432.320312 257.4375 430.058594 C 259.433594 427.796875 262.304688 426.503906 265.320312 426.503906 Z M 405.554688 426.503906 " fill-opacity="1" fill-rule="evenodd"/></g><path fill="#cfd8dc" d="M 384.519531 468.574219 C 390.328125 468.574219 395.035156 473.28125 395.035156 479.089844 L 395.035156 661.390625 C 395.035156 665.140625 393.042969 668.605469 389.796875 670.488281 C 386.554688 672.371094 382.554688 672.382812 379.300781 670.523438 L 330.21875 642.476562 C 325.175781 639.597656 323.425781 633.171875 326.308594 628.128906 C 329.1875 623.085938 335.613281 621.332031 340.65625 624.214844 L 374 643.269531 L 374 479.089844 C 374 473.28125 378.710938 468.574219 384.519531 468.574219 Z M 384.519531 468.574219 " fill-opacity="1" fill-rule="evenodd"/><path fill="#eceff1" d="M 416.074219 479.089844 C 416.074219 473.28125 420.78125 468.574219 426.589844 468.574219 L 496.707031 468.574219 C 502.515625 468.574219 507.222656 473.28125 507.222656 479.089844 C 507.222656 484.898438 502.515625 489.605469 496.707031 489.605469 L 437.109375 489.605469 L 437.109375 557.128906 L 487.414062 545.949219 C 490.691406 545.222656 494.121094 546.101562 496.640625 548.320312 C 499.164062 550.539062 500.472656 553.824219 500.167969 557.171875 L 493.15625 634.296875 C 492.828125 637.925781 490.644531 641.125 487.386719 642.753906 L 431.292969 670.800781 C 426.097656 673.398438 419.78125 671.292969 417.183594 666.09375 C 414.585938 660.898438 416.691406 654.582031 421.886719 651.984375 L 472.738281 626.558594 L 477.917969 569.609375 L 428.871094 580.507812 C 425.757812 581.199219 422.496094 580.441406 420.007812 578.445312 C 417.519531 576.449219 416.074219 573.429688 416.074219 570.242188 Z M 416.074219 479.089844 " fill-opacity="1" fill-rule="evenodd"/></svg>