<svg xmlns="http://www.w3.org/2000/svg" xmlns:xlink="http://www.w3.org/1999/xlink" width="1080" zoomAndPan="magnify" viewBox="0 0 810 809.999993" height="1080" preserveAspectRatio="xMidYMid meet" version="1.0"><defs><clipPath id="6d68b04a4c"><path d="M 67.257812 29 L 743.007812 29 L 743.007812 603 L 67.257812 603 Z M 67.257812 29 " clip-rule="nonzero"/></clipPath><clipPath id="1c92515a82"><path d="M 67.257812 0 L 743.007812 0 L 743.007812 632.25 L 67.257812 632.25 Z M 67.257812 0 " clip-rule="nonzero"/></clipPath></defs><path fill="#00d8ff" d="M 279.796875 767.980469 L 246.519531 717.707031 C 263.335938 716.222656 278.492188 704.039062 278.492188 681.777344 C 278.492188 659.128906 262.417969 644.628906 239.867188 644.628906 L 190.34375 644.628906 L 190.34375 767.886719 L 205.683594 767.886719 L 205.683594 718.910156 L 230.265625 718.910156 L 261.683594 767.886719 Z M 238.03125 705.515625 L 205.691406 705.515625 L 205.691406 658.394531 L 238.03125 658.394531 C 252.636719 658.394531 262.613281 668 262.613281 681.863281 C 262.613281 695.730469 252.628906 705.53125 238.03125 705.53125 Z M 336.902344 770.1875 C 351.507812 770.1875 363.515625 765.386719 372.386719 756.519531 L 365.734375 747.460938 C 358.703125 754.667969 348.363281 758.730469 338.199219 758.730469 C 318.984375 758.730469 307.148438 744.6875 306.042969 727.878906 L 378.292969 727.878906 L 378.292969 724.363281 C 378.292969 697.570312 362.398438 676.5 335.410156 676.5 C 309.90625 676.5 291.433594 697.382812 291.433594 723.253906 C 291.433594 751.160156 310.46875 770.117188 336.894531 770.117188 Z M 364.632812 717.699219 L 306.050781 717.699219 C 306.789062 704.03125 316.203125 687.941406 335.246094 687.941406 C 355.578125 687.941406 364.445312 704.390625 364.632812 717.699219 Z M 470.347656 767.972656 L 470.347656 706.617188 C 470.347656 684.996094 454.648438 676.492188 435.792969 676.492188 C 421.183594 676.492188 409.734375 681.292969 400.125 691.277344 L 406.59375 700.882812 C 414.539062 692.386719 423.230469 688.503906 433.949219 688.503906 C 446.882812 688.503906 456.5 695.339844 456.5 707.351562 L 456.5 723.425781 C 449.289062 715.105469 439.125 711.226562 426.925781 711.226562 C 411.773438 711.226562 395.679688 720.652344 395.679688 740.609375 C 395.679688 760.011719 411.757812 770.179688 426.925781 770.179688 C 438.9375 770.179688 449.109375 765.933594 456.5 757.800781 L 456.5 767.957031 Z M 431.917969 760.207031 C 418.980469 760.207031 409.921875 752.082031 409.921875 740.804688 C 409.921875 729.347656 418.980469 721.214844 431.917969 721.214844 C 441.710938 721.214844 451.132812 724.910156 456.5 732.308594 L 456.5 749.125 C 451.140625 756.511719 441.710938 760.214844 431.917969 760.214844 Z M 537.367188 770.1875 C 553.628906 770.1875 563.238281 763.535156 570.078125 754.667969 L 560.839844 746.171875 C 554.925781 754.113281 547.347656 757.808594 538.1875 757.808594 C 519.152344 757.808594 507.332031 743.023438 507.332031 723.253906 C 507.332031 703.484375 519.160156 688.886719 538.1875 688.886719 C 547.425781 688.886719 555.003906 692.402344 560.839844 700.523438 L 570.078125 692.027344 C 563.246094 683.152344 553.628906 676.507812 537.367188 676.507812 C 510.753906 676.507812 492.828125 696.839844 492.828125 723.261719 C 492.828125 749.875 510.753906 770.125 537.367188 770.125 Z M 612.039062 770.1875 C 620.164062 770.1875 625.164062 767.785156 628.679688 764.464844 L 624.617188 754.113281 C 622.765625 756.144531 619.148438 757.808594 615.1875 757.808594 C 609.097656 757.808594 606.128906 753.003906 606.128906 746.351562 L 606.128906 690.910156 L 624.25 690.910156 L 624.25 678.71875 L 606.128906 678.71875 L 606.128906 654.324219 L 592.261719 654.324219 L 592.261719 678.71875 L 577.476562 678.71875 L 577.476562 690.917969 L 592.261719 690.917969 L 592.261719 749.320312 C 592.261719 762.628906 598.917969 770.203125 612.039062 770.203125 Z M 612.039062 770.1875 " fill-opacity="1" fill-rule="evenodd"/><path fill="#00d8ff" d="M 465.476562 315.570312 C 465.476562 317.546875 465.378906 319.515625 465.1875 321.480469 C 464.992188 323.445312 464.703125 325.394531 464.316406 327.332031 C 463.933594 329.269531 463.453125 331.183594 462.878906 333.074219 C 462.304688 334.960938 461.640625 336.820312 460.882812 338.644531 C 460.128906 340.46875 459.285156 342.25 458.351562 343.992188 C 457.421875 345.734375 456.40625 347.425781 455.308594 349.066406 C 454.210938 350.710938 453.035156 352.292969 451.78125 353.820312 C 450.527344 355.347656 449.199219 356.808594 447.804688 358.207031 C 446.40625 359.601562 444.945312 360.925781 443.414062 362.179688 C 441.886719 363.433594 440.300781 364.605469 438.660156 365.703125 C 437.015625 366.800781 435.324219 367.816406 433.582031 368.746094 C 431.835938 369.675781 430.054688 370.519531 428.226562 371.277344 C 426.402344 372.03125 424.542969 372.695312 422.652344 373.269531 C 420.761719 373.84375 418.84375 374.320312 416.90625 374.707031 C 414.96875 375.09375 413.015625 375.382812 411.050781 375.574219 C 409.082031 375.769531 407.109375 375.867188 405.136719 375.867188 C 403.160156 375.867188 401.1875 375.769531 399.21875 375.574219 C 397.253906 375.382812 395.300781 375.09375 393.363281 374.707031 C 391.425781 374.320312 389.507812 373.84375 387.617188 373.269531 C 385.726562 372.695312 383.867188 372.03125 382.042969 371.277344 C 380.21875 370.519531 378.433594 369.675781 376.691406 368.746094 C 374.945312 367.816406 373.253906 366.800781 371.609375 365.703125 C 369.96875 364.605469 368.382812 363.433594 366.855469 362.179688 C 365.328125 360.925781 363.863281 359.601562 362.464844 358.207031 C 361.070312 356.808594 359.742188 355.347656 358.488281 353.820312 C 357.234375 352.292969 356.058594 350.710938 354.960938 349.066406 C 353.863281 347.425781 352.847656 345.734375 351.917969 343.992188 C 350.984375 342.25 350.140625 340.46875 349.386719 338.644531 C 348.628906 336.820312 347.964844 334.960938 347.390625 333.074219 C 346.816406 331.183594 346.335938 329.269531 345.953125 327.332031 C 345.566406 325.394531 345.277344 323.445312 345.082031 321.480469 C 344.890625 319.515625 344.792969 317.546875 344.792969 315.570312 C 344.792969 313.59375 344.890625 311.625 345.082031 309.660156 C 345.277344 307.695312 345.566406 305.742188 345.953125 303.808594 C 346.335938 301.871094 346.816406 299.957031 347.390625 298.066406 C 347.964844 296.179688 348.628906 294.320312 349.386719 292.496094 C 350.140625 290.671875 350.984375 288.890625 351.917969 287.148438 C 352.847656 285.40625 353.863281 283.714844 354.960938 282.070312 C 356.058594 280.429688 357.234375 278.847656 358.488281 277.320312 C 359.742188 275.792969 361.070312 274.332031 362.464844 272.933594 C 363.863281 271.539062 365.328125 270.214844 366.855469 268.960938 C 368.382812 267.707031 369.96875 266.535156 371.609375 265.4375 C 373.253906 264.339844 374.945312 263.324219 376.691406 262.394531 C 378.433594 261.464844 380.21875 260.621094 382.042969 259.863281 C 383.867188 259.109375 385.726562 258.445312 387.617188 257.871094 C 389.507812 257.296875 391.425781 256.820312 393.363281 256.433594 C 395.300781 256.046875 397.253906 255.757812 399.21875 255.566406 C 401.1875 255.371094 403.160156 255.273438 405.136719 255.273438 C 407.109375 255.273438 409.082031 255.371094 411.050781 255.566406 C 413.015625 255.757812 414.96875 256.046875 416.90625 256.433594 C 418.84375 256.820312 420.761719 257.296875 422.652344 257.871094 C 424.542969 258.445312 426.402344 259.109375 428.226562 259.863281 C 430.054688 260.621094 431.835938 261.464844 433.582031 262.394531 C 435.324219 263.324219 437.015625 264.339844 438.660156 265.4375 C 440.300781 266.535156 441.886719 267.707031 443.414062 268.960938 C 444.945312 270.214844 446.40625 271.539062 447.804688 272.933594 C 449.199219 274.332031 450.527344 275.792969 451.78125 277.320312 C 453.035156 278.847656 454.210938 280.429688 455.308594 282.070312 C 456.40625 283.714844 457.421875 285.40625 458.351562 287.148438 C 459.285156 288.890625 460.128906 290.671875 460.882812 292.496094 C 461.640625 294.320312 462.304688 296.179688 462.878906 298.066406 C 463.453125 299.957031 463.933594 301.871094 464.316406 303.808594 C 464.703125 305.742188 464.992188 307.695312 465.1875 309.660156 C 465.378906 311.625 465.476562 313.59375 465.476562 315.570312 Z M 465.476562 315.570312 " fill-opacity="1" fill-rule="nonzero"/><g clip-path="url(#6d68b04a4c)"><path stroke-linecap="butt" transform="matrix(1.202835, 0, 0, 1.201887, 80.934741, 29.965672)" fill="none" stroke-linejoin="miter" d="M 269.531522 135.629085 C 336.885414 135.629085 399.458932 145.294872 446.639131 161.535603 C 503.483997 181.107684 538.433977 210.771314 538.433977 237.630111 C 538.433977 265.619941 501.392584 297.132876 440.351902 317.358226 C 394.201172 332.64668 333.472254 340.628917 269.531522 340.628917 C 203.976766 340.628917 141.90012 333.137444 95.229784 317.189221 C 36.186337 297.009373 0.622573 265.086926 0.622573 237.630111 C 0.622573 210.989071 33.991003 181.552947 90.036975 162.013368 C 137.392541 145.502878 201.505391 135.629085 269.525027 135.629085 Z M 269.531522 135.629085 " stroke="#00d8ff" stroke-width="24" stroke-opacity="1" stroke-miterlimit="4"/></g><g clip-path="url(#1c92515a82)"><path stroke-linecap="butt" transform="matrix(1.202835, 0, 0, 1.201887, 80.934741, 29.965672)" fill="none" stroke-linejoin="miter" d="M 180.740648 186.918857 C 214.391613 128.573126 254.021292 79.200911 291.660231 46.439939 C 337.00882 6.977268 380.158827 -8.48019 403.430668 4.936208 C 427.67677 18.921373 436.471097 66.749791 423.497192 129.73666 C 413.696129 177.353823 390.261911 233.947752 358.322397 289.335895 C 325.570999 346.12483 288.071704 396.156814 250.93938 428.605777 C 203.960528 469.673995 158.540493 484.536686 134.762037 470.821279 C 111.6818 457.518634 102.854998 413.89909 113.925847 355.58911 C 123.281998 306.320899 146.758434 245.849605 180.727658 186.928607 Z M 180.740648 186.918857 " stroke="#00d8ff" stroke-width="24" stroke-opacity="1" stroke-miterlimit="4"/><path stroke-linecap="butt" transform="matrix(1.202835, 0, 0, 1.201887, 80.934741, 29.965672)" fill="none" stroke-linejoin="miter" d="M 180.818589 289.478899 C 147.07994 231.20142 124.100377 172.19917 114.510404 123.229967 C 102.965414 64.230967 111.126472 19.119628 134.37558 5.660979 C 158.598949 -8.363187 204.428173 7.903546 252.514435 50.600062 C 288.870598 82.88002 326.201021 131.436461 358.234714 186.769352 C 391.077043 243.503035 415.693363 300.98099 425.270346 349.348925 C 437.386902 410.564491 427.579344 457.330129 403.817125 471.091037 C 380.759621 484.439183 338.567637 470.304514 293.576277 431.589365 C 255.563871 398.880395 214.894981 348.338145 180.818589 289.469149 Z M 180.818589 289.478899 " stroke="#00d8ff" stroke-width="24" stroke-opacity="1" stroke-miterlimit="4"/></g></svg>